<?xml version="1.0" encoding="utf-8"?>
<svg viewBox="0 0 500 500" xmlns="http://www.w3.org/2000/svg">
  <g id="layer1" transform="matrix(1, 0, 0, 1, -227.172333, 349.035767)">
    <path d="M 538.152 -7.654 C 538.152 -7.654 460.514 -2.361 394.46 -8.33 C 395.79 71.945 405.498 113.187 407.08 121.99 L 551.399 121.99 C 544.524 79.771 539.08 11.614 538.152 -7.654 M 293.364 -174.425 C 302.997 -173.62 388.039 -166.173 393.758 -166.173 L 528.419 -29.225 L 701.512 -29.225 L 701.512 -174.425 Z M 406.074 -182.879 L 551.422 -182.879 L 551.422 -323.687 L 406.074 -323.687 Z M 405.146 -142.389 L 405.146 -142.389 L 386.257 -161.631 C 361.07 -161.296 279.992 -169.885 253.954 -174.425 L 253.954 -29.225 C 384.073 -16.382 452.381 -13.147 528.619 -15.555 L 529.848 -15.555 Z M 537.498 -21.801 L 555.161 -21.801 L 555.161 91.06 C 553 79.37 546.379 10.635 547.209 -11.366 C 544.974 -13.621 537.498 -21.801 537.498 -21.801" style="fill: rgb(255, 255, 255); fill-opacity: 1; fill-rule: evenodd; stroke: none; stroke-width: 9.36591;" id="path564"/>
  </g>
</svg>